# xmcd
#
# Track frame offsets: 
#        150
#        15823
#        29190
#        48346
#        63391
#        81382
#        101314
#        114156
#        129397
#        144863
#        157857
#
# Disc length: 2269 seconds
#
# Revision: 4
# Processed by: cddbd v1.5.2PL0 Copyright (c) Steve Scherf et al.
# Submitted via: ExactAudioCopy v1.0b3
#
DISCID=7d08db0b
DTITLE=Steve Earle - I'll never get out of this world alive
DYEAR=2011
DGENRE=Country
TTITLE0=Waitin' on the sky
TTITLE1=Little emperor
TTITLE2=The Gulf of Mexico
TTITLE3=Molly-O
TTITLE4=God is God
TTITLE5=Meet me in the alleyway
TTITLE6=Every part of me
TTITLE7=Lonely are the free
TTITLE8=Steve Earle - Allison Moorer - Heaven or hell
TTITLE9=I am a wanderer
TTITLE10=This city
EXTD=
EXTT0=
EXTT1=
EXTT2=
EXTT3=
EXTT4=
EXTT5=
EXTT6=
EXTT7=
EXTT8=
EXTT9=
EXTT10=
PLAYORDER=
